ply
format ascii 1.0
element vertex 46
property float x
property float y
property float z
property float nx
property float ny
property float nz
property uchar red
property uchar green
property uchar blue
end_header
0.0 0.0 0.0 -0.577 -0.577 -0.577 255 0 0
0.0 0.0 1.0 -0.577 -0.577 0.5770 0 0 255
0.0 0.5 0.5 -1.000 0.0000 0.0000 255 0 0
0.5 0.0 0.5 0.0000 -1.000 0.0000 255 0 0
0.5 0.5 1.0 0.0000 0.0000 1.0000 255 0 0
0.5 0.5 0.0 0.0000 0.0000 -1.000 255 0 0
0.0 1.0 0.0 -0.707 0.0000 -0.707 255 0 0
0.0 1.0 1.0 -0.707 0.0000 0.7070 255 0 0
0.0 1.5 0.5 -1.000 0.0000 0.0000 255 0 0
0.5 1.5 1.0 0.0000 0.0000 1.0000 255 0 0
0.5 1.5 0.0 0.0000 0.0000 -1.000 255 0 0
0.0 3.0 0.0 -0.577 0.5770 -0.577 255 0 0
0.0 3.0 1.0 -0.577 0.5770 0.5770 255 0 0
0.5 3.0 0.5 0.0000 1.0000 0.0000 255 0 0
0.0 2.0 0.0 -0.707 0.0000 -0.707 255 0 0
0.0 2.0 1.0 -0.707 0.0000 0.7070 255 0 0
0.0 2.5 0.5 -1.000 0.0000 0.0000 255 0 0
0.5 2.5 1.0 0.0000 0.0000 1.0000 255 0 0
0.5 2.5 0.0 0.0000 0.0000 -1.000 255 0 0
2.0 0.5 0.5 1.0000 0.0000 0.0000 255 0 0
2.0 1.5 0.5 1.0000 0.0000 0.0000 255 0 0
2.0 2.5 0.5 1.0000 0.0000 0.0000 255 0 0
1.5 0.0 0.5 0.0000 -1.000 0.0000 255 0 0
1.5 3.0 0.5 0.0000 1.0000 0.0000 255 0 0
2.0 0.0 0.0 0.5770 -0.577 -0.577 255 0 0
2.0 0.0 1.0 0.5770 -0.577 0.5770 255 0 0
2.0 3.0 0.0 0.5770 0.5770 -0.577 255 0 0
2.0 3.0 1.0 0.5770 0.5770 0.5770 255 0 0
1.0 0.0 0.0 0.0000 -0.707 -0.707 255 0 0
1.0 0.0 1.0 0.0000 -0.707 0.7070 255 0 0
1.0 3.0 0.0 0.0000 0.7070 -0.707 255 0 0
1.0 3.0 1.0 0.0000 0.7070 0.7070 255 0 0
2.0 1.0 0.0 0.7070 0.0000 -0.707 255 0 0
2.0 1.0 1.0 0.7070 0.0000 0.7070 255 0 0
2.0 2.0 0.0 0.7070 0.0000 -0.707 255 0 0
2.0 2.0 1.0 0.7070 0.0000 0.7070 255 0 0
1.0 1.0 0.0 0.0000 0.0000 -1.000 255 0 0
1.0 1.0 1.0 0.0000 0.0000 1.0000 255 0 0
1.0 2.0 0.0 0.0000 0.0000 -1.000 255 0 0
1.0 2.0 1.0 0.0000 0.0000 1.0000 255 0 0
1.5 0.5 1.0 0.0000 0.0000 1.0000 255 0 0
1.5 1.5 1.0 0.0000 0.0000 1.0000 255 0 0
1.5 2.5 1.0 0.0000 0.0000 1.0000 255 0 0
1.5 0.5 0.0 0.0000 0.0000 -1.000 255 0 0
1.5 1.5 0.0 0.0000 0.0000 -1.000 255 0 0
1.5 2.5 0.0 0.0000 0.0000 -1.000 255 0 0

